<svg width="45" height="45" viewBox="0 0 45 45" fill="none" xmlns="http://www.w3.org/2000/svg">
<circle cx="22.5" cy="22.5" r="22.5" fill="#F9DDAB"/>
<path d="M17.5057 29.2557C16.5284 29.2519 15.6875 29.0114 14.983 28.5341C14.2822 28.0568 13.7424 27.3655 13.3636 26.4602C12.9886 25.5549 12.803 24.4659 12.8068 23.1932C12.8068 21.9242 12.9943 20.8428 13.3693 19.9489C13.7481 19.0549 14.2879 18.375 14.9886 17.9091C15.6932 17.4394 16.5322 17.2045 17.5057 17.2045C18.4792 17.2045 19.3163 17.4394 20.017 17.9091C20.7216 18.3788 21.2633 19.0606 21.642 19.9545C22.0208 20.8447 22.2083 21.9242 22.2045 23.1932C22.2045 24.4697 22.0152 25.5606 21.6364 26.4659C21.2614 27.3712 20.7235 28.0625 20.0227 28.5398C19.322 29.017 18.483 29.2557 17.5057 29.2557ZM17.5057 27.2159C18.1723 27.2159 18.7045 26.8807 19.1023 26.2102C19.5 25.5398 19.697 24.5341 19.6932 23.1932C19.6932 22.3106 19.6023 21.5758 19.4205 20.9886C19.2424 20.4015 18.9886 19.9602 18.6591 19.6648C18.3333 19.3693 17.9489 19.2216 17.5057 19.2216C16.8428 19.2216 16.3125 19.553 15.9148 20.2159C15.517 20.8788 15.3163 21.8712 15.3125 23.1932C15.3125 24.0871 15.4015 24.8333 15.5795 25.4318C15.7614 26.0265 16.017 26.4735 16.3466 26.7727C16.6761 27.0682 17.0625 27.2159 17.5057 27.2159ZM29.0213 17.3636V29H26.5611V19.6989H26.4929L23.8281 21.3693V19.1875L26.7088 17.3636H29.0213Z" fill="#AC5088"/>
</svg>
