<svg width="45" height="45" viewBox="0 0 45 45" fill="none" xmlns="http://www.w3.org/2000/svg">
<circle cx="22.5" cy="22.5" r="22.5" fill="#F9DDAB"/>
<path d="M17.5057 29.2557C16.5284 29.2519 15.6875 29.0114 14.983 28.5341C14.2822 28.0568 13.7424 27.3655 13.3636 26.4602C12.9886 25.5549 12.803 24.4659 12.8068 23.1932C12.8068 21.9242 12.9943 20.8428 13.3693 19.9489C13.7481 19.0549 14.2879 18.375 14.9886 17.9091C15.6932 17.4394 16.5322 17.2045 17.5057 17.2045C18.4792 17.2045 19.3163 17.4394 20.017 17.9091C20.7216 18.3788 21.2633 19.0606 21.642 19.9545C22.0208 20.8447 22.2083 21.9242 22.2045 23.1932C22.2045 24.4697 22.0152 25.5606 21.6364 26.4659C21.2614 27.3712 20.7235 28.0625 20.0227 28.5398C19.322 29.017 18.483 29.2557 17.5057 29.2557ZM17.5057 27.2159C18.1723 27.2159 18.7045 26.8807 19.1023 26.2102C19.5 25.5398 19.697 24.5341 19.6932 23.1932C19.6932 22.3106 19.6023 21.5758 19.4205 20.9886C19.2424 20.4015 18.9886 19.9602 18.6591 19.6648C18.3333 19.3693 17.9489 19.2216 17.5057 19.2216C16.8428 19.2216 16.3125 19.553 15.9148 20.2159C15.517 20.8788 15.3163 21.8712 15.3125 23.1932C15.3125 24.0871 15.4015 24.8333 15.5795 25.4318C15.7614 26.0265 16.017 26.4735 16.3466 26.7727C16.6761 27.0682 17.0625 27.2159 17.5057 27.2159ZM23.9588 29V27.2273L28.1009 23.392C28.4531 23.0511 28.7486 22.7443 28.9872 22.4716C29.2296 22.1989 29.4134 21.9318 29.5384 21.6705C29.6634 21.4053 29.7259 21.1193 29.7259 20.8125C29.7259 20.4716 29.6482 20.178 29.4929 19.9318C29.3376 19.6818 29.1255 19.4905 28.8565 19.358C28.5876 19.2216 28.2827 19.1534 27.9418 19.1534C27.5857 19.1534 27.2751 19.2254 27.0099 19.3693C26.7448 19.5133 26.5402 19.7197 26.3963 19.9886C26.2524 20.2576 26.1804 20.5777 26.1804 20.9489H23.8452C23.8452 20.1875 24.0175 19.5265 24.3622 18.9659C24.7069 18.4053 25.1899 17.9716 25.8111 17.6648C26.4323 17.358 27.1482 17.2045 27.9588 17.2045C28.7921 17.2045 29.5175 17.3523 30.1349 17.6477C30.7562 17.9394 31.2391 18.3447 31.5838 18.8636C31.9285 19.3826 32.1009 19.9773 32.1009 20.6477C32.1009 21.0871 32.0137 21.5208 31.8395 21.9489C31.669 22.3769 31.3641 22.8523 30.9247 23.375C30.4853 23.8939 29.866 24.517 29.0668 25.2443L27.3679 26.9091V26.9886H32.2543V29H23.9588Z" fill="#AC5088"/>
</svg>
