<svg width="45" height="45" viewBox="0 0 45 45" fill="none" xmlns="http://www.w3.org/2000/svg">
<circle cx="22.5" cy="22.5" r="22.5" fill="#F9DDAB"/>
<path d="M17.5057 29.2557C16.5284 29.2519 15.6875 29.0114 14.983 28.5341C14.2822 28.0568 13.7424 27.3655 13.3636 26.4602C12.9886 25.5549 12.803 24.4659 12.8068 23.1932C12.8068 21.9242 12.9943 20.8428 13.3693 19.9489C13.7481 19.0549 14.2879 18.375 14.9886 17.9091C15.6932 17.4394 16.5322 17.2045 17.5057 17.2045C18.4792 17.2045 19.3163 17.4394 20.017 17.9091C20.7216 18.3788 21.2633 19.0606 21.642 19.9545C22.0208 20.8447 22.2083 21.9242 22.2045 23.1932C22.2045 24.4697 22.0152 25.5606 21.6364 26.4659C21.2614 27.3712 20.7235 28.0625 20.0227 28.5398C19.322 29.017 18.483 29.2557 17.5057 29.2557ZM17.5057 27.2159C18.1723 27.2159 18.7045 26.8807 19.1023 26.2102C19.5 25.5398 19.697 24.5341 19.6932 23.1932C19.6932 22.3106 19.6023 21.5758 19.4205 20.9886C19.2424 20.4015 18.9886 19.9602 18.6591 19.6648C18.3333 19.3693 17.9489 19.2216 17.5057 19.2216C16.8428 19.2216 16.3125 19.553 15.9148 20.2159C15.517 20.8788 15.3163 21.8712 15.3125 23.1932C15.3125 24.0871 15.4015 24.8333 15.5795 25.4318C15.7614 26.0265 16.017 26.4735 16.3466 26.7727C16.6761 27.0682 17.0625 27.2159 17.5057 27.2159ZM28.2599 29.1591C27.4115 29.1591 26.6558 29.0133 25.9929 28.7216C25.3338 28.4261 24.813 28.0208 24.4304 27.5057C24.0516 26.9867 23.8565 26.3883 23.8452 25.7102H26.3224C26.3376 25.9943 26.4304 26.2443 26.6009 26.4602C26.7751 26.6723 27.0062 26.8371 27.294 26.9545C27.5819 27.072 27.9058 27.1307 28.2656 27.1307C28.6406 27.1307 28.9721 27.0644 29.2599 26.9318C29.5478 26.7992 29.7732 26.6155 29.9361 26.3807C30.099 26.1458 30.1804 25.875 30.1804 25.5682C30.1804 25.2576 30.0933 24.983 29.919 24.7443C29.7486 24.5019 29.5024 24.3125 29.1804 24.1761C28.8622 24.0398 28.4834 23.9716 28.044 23.9716H26.9588V22.1648H28.044C28.4152 22.1648 28.7429 22.1004 29.027 21.9716C29.3149 21.8428 29.5384 21.6648 29.6974 21.4375C29.8565 21.2064 29.9361 20.9375 29.9361 20.6307C29.9361 20.339 29.866 20.0833 29.7259 19.8636C29.5895 19.6402 29.3963 19.4659 29.1463 19.3409C28.9001 19.2159 28.6122 19.1534 28.2827 19.1534C27.9493 19.1534 27.6444 19.214 27.3679 19.3352C27.0914 19.4527 26.8698 19.6212 26.7031 19.8409C26.5365 20.0606 26.4474 20.3182 26.4361 20.6136H24.0781C24.0895 19.9432 24.2808 19.3523 24.652 18.8409C25.0232 18.3295 25.5232 17.9299 26.152 17.642C26.7846 17.3504 27.4986 17.2045 28.294 17.2045C29.0971 17.2045 29.7997 17.3504 30.402 17.642C31.0043 17.9337 31.4721 18.3277 31.8054 18.8239C32.1425 19.3163 32.3092 19.8693 32.3054 20.483C32.3092 21.1345 32.1065 21.678 31.6974 22.1136C31.2921 22.5492 30.7637 22.8258 30.1122 22.9432V23.0341C30.9683 23.1439 31.6198 23.4413 32.0668 23.9261C32.5175 24.4072 32.741 25.0095 32.7372 25.733C32.741 26.3958 32.5497 26.9848 32.1634 27.5C31.7808 28.0152 31.2524 28.4205 30.5781 28.7159C29.9039 29.0114 29.1312 29.1591 28.2599 29.1591Z" fill="#AC5088"/>
</svg>
