<svg width="45" height="45" viewBox="0 0 45 45" fill="none" xmlns="http://www.w3.org/2000/svg">
<circle cx="22.5" cy="22.5" r="22.5" fill="#F9DDAB"/>
<path d="M17.5057 29.2557C16.5284 29.2519 15.6875 29.0114 14.983 28.5341C14.2822 28.0568 13.7424 27.3655 13.3636 26.4602C12.9886 25.5549 12.803 24.4659 12.8068 23.1932C12.8068 21.9242 12.9943 20.8428 13.3693 19.9489C13.7481 19.0549 14.2879 18.375 14.9886 17.9091C15.6932 17.4394 16.5322 17.2045 17.5057 17.2045C18.4792 17.2045 19.3163 17.4394 20.017 17.9091C20.7216 18.3788 21.2633 19.0606 21.642 19.9545C22.0208 20.8447 22.2083 21.9242 22.2045 23.1932C22.2045 24.4697 22.0152 25.5606 21.6364 26.4659C21.2614 27.3712 20.7235 28.0625 20.0227 28.5398C19.322 29.017 18.483 29.2557 17.5057 29.2557ZM17.5057 27.2159C18.1723 27.2159 18.7045 26.8807 19.1023 26.2102C19.5 25.5398 19.697 24.5341 19.6932 23.1932C19.6932 22.3106 19.6023 21.5758 19.4205 20.9886C19.2424 20.4015 18.9886 19.9602 18.6591 19.6648C18.3333 19.3693 17.9489 19.2216 17.5057 19.2216C16.8428 19.2216 16.3125 19.553 15.9148 20.2159C15.517 20.8788 15.3163 21.8712 15.3125 23.1932C15.3125 24.0871 15.4015 24.8333 15.5795 25.4318C15.7614 26.0265 16.017 26.4735 16.3466 26.7727C16.6761 27.0682 17.0625 27.2159 17.5057 27.2159ZM28.2088 29.1591C27.4058 29.1591 26.6899 29.0114 26.0611 28.7159C25.4361 28.4205 24.9399 28.0133 24.5724 27.4943C24.205 26.9754 24.0137 26.3807 23.9986 25.7102H26.3849C26.4115 26.161 26.6009 26.5265 26.9531 26.8068C27.3054 27.0871 27.724 27.2273 28.2088 27.2273C28.5952 27.2273 28.9361 27.142 29.2315 26.9716C29.5308 26.7973 29.7637 26.5568 29.9304 26.25C30.1009 25.9394 30.1861 25.5833 30.1861 25.1818C30.1861 24.7727 30.099 24.4129 29.9247 24.1023C29.7543 23.7917 29.5175 23.5492 29.2145 23.375C28.9115 23.2008 28.5649 23.1117 28.1747 23.108C27.8338 23.108 27.5024 23.178 27.1804 23.3182C26.8622 23.4583 26.6141 23.6496 26.4361 23.892L24.2486 23.5L24.7997 17.3636H31.9134V19.375H26.8281L26.527 22.2898H26.5952C26.7997 22.0019 27.1084 21.7633 27.5213 21.5739C27.9342 21.3845 28.3963 21.2898 28.9077 21.2898C29.6084 21.2898 30.2334 21.4545 30.7827 21.7841C31.3319 22.1136 31.7656 22.5663 32.0838 23.142C32.402 23.714 32.5592 24.3731 32.5554 25.1193C32.5592 25.9034 32.3774 26.6004 32.0099 27.2102C31.6463 27.8163 31.1368 28.2936 30.4815 28.642C29.83 28.9867 29.0724 29.1591 28.2088 29.1591Z" fill="#AC5088"/>
</svg>
