<svg width="45" height="45" viewBox="0 0 45 45" fill="none" xmlns="http://www.w3.org/2000/svg">
<circle cx="22.5" cy="22.5" r="22.5" fill="#F9DDAB"/>
<path d="M17.5057 29.2557C16.5284 29.2519 15.6875 29.0114 14.983 28.5341C14.2822 28.0568 13.7424 27.3655 13.3636 26.4602C12.9886 25.5549 12.803 24.4659 12.8068 23.1932C12.8068 21.9242 12.9943 20.8428 13.3693 19.9489C13.7481 19.0549 14.2879 18.375 14.9886 17.9091C15.6932 17.4394 16.5322 17.2045 17.5057 17.2045C18.4792 17.2045 19.3163 17.4394 20.017 17.9091C20.7216 18.3788 21.2633 19.0606 21.642 19.9545C22.0208 20.8447 22.2083 21.9242 22.2045 23.1932C22.2045 24.4697 22.0152 25.5606 21.6364 26.4659C21.2614 27.3712 20.7235 28.0625 20.0227 28.5398C19.322 29.017 18.483 29.2557 17.5057 29.2557ZM17.5057 27.2159C18.1723 27.2159 18.7045 26.8807 19.1023 26.2102C19.5 25.5398 19.697 24.5341 19.6932 23.1932C19.6932 22.3106 19.6023 21.5758 19.4205 20.9886C19.2424 20.4015 18.9886 19.9602 18.6591 19.6648C18.3333 19.3693 17.9489 19.2216 17.5057 19.2216C16.8428 19.2216 16.3125 19.553 15.9148 20.2159C15.517 20.8788 15.3163 21.8712 15.3125 23.1932C15.3125 24.0871 15.4015 24.8333 15.5795 25.4318C15.7614 26.0265 16.017 26.4735 16.3466 26.7727C16.6761 27.0682 17.0625 27.2159 17.5057 27.2159ZM28.4247 29.1591C27.8262 29.1553 27.2486 29.0549 26.6918 28.858C26.1387 28.661 25.6425 28.3409 25.2031 27.8977C24.7637 27.4545 24.4152 26.8674 24.1577 26.1364C23.9039 25.4053 23.777 24.5076 23.777 23.4432C23.7808 22.4659 23.8925 21.5928 24.1122 20.8239C24.3357 20.0511 24.6539 19.3958 25.0668 18.858C25.4834 18.3201 25.9815 17.911 26.5611 17.6307C27.1406 17.3466 27.7902 17.2045 28.5099 17.2045C29.2865 17.2045 29.9721 17.3561 30.5668 17.6591C31.1615 17.9583 31.6387 18.3655 31.9986 18.8807C32.3622 19.3958 32.5819 19.9735 32.6577 20.6136H30.2315C30.1368 20.2083 29.938 19.8902 29.6349 19.6591C29.3319 19.428 28.9569 19.3125 28.5099 19.3125C27.7524 19.3125 27.1766 19.642 26.7827 20.3011C26.3925 20.9602 26.1937 21.8561 26.1861 22.9886H26.2656C26.4399 22.6439 26.6747 22.3504 26.9702 22.108C27.2694 21.8617 27.6084 21.6742 27.9872 21.5455C28.3698 21.4129 28.7732 21.3466 29.1974 21.3466C29.8868 21.3466 30.5005 21.5095 31.0384 21.8352C31.5762 22.1572 32.0005 22.6004 32.3111 23.1648C32.6217 23.7292 32.777 24.375 32.777 25.1023C32.777 25.8902 32.5933 26.5909 32.2259 27.2045C31.8622 27.8182 31.3527 28.2992 30.6974 28.6477C30.0459 28.9924 29.2884 29.1629 28.4247 29.1591ZM28.4134 27.2273C28.7921 27.2273 29.1312 27.1364 29.4304 26.9545C29.7296 26.7727 29.9645 26.5265 30.1349 26.2159C30.3054 25.9053 30.3906 25.5568 30.3906 25.1705C30.3906 24.7841 30.3054 24.4375 30.1349 24.1307C29.9683 23.8239 29.7372 23.5795 29.4418 23.3977C29.1463 23.2159 28.8092 23.125 28.4304 23.125C28.1463 23.125 27.883 23.178 27.6406 23.2841C27.402 23.3902 27.1918 23.5379 27.0099 23.7273C26.8319 23.9167 26.6918 24.1364 26.5895 24.3864C26.4872 24.6326 26.4361 24.8958 26.4361 25.1761C26.4361 25.5511 26.5213 25.8939 26.6918 26.2045C26.866 26.5152 27.1009 26.7633 27.3963 26.9489C27.6955 27.1345 28.0346 27.2273 28.4134 27.2273Z" fill="#AC5088"/>
</svg>
