<svg width="404" height="381" viewBox="0 0 404 381" fill="none" xmlns="http://www.w3.org/2000/svg">
<path d="M26.6867 220.798L20.1177 231.388L23.3612 233.397C24.315 233.988 24.832 235.067 24.7367 236.184C24.6839 236.802 24.664 237.424 24.6782 238.047C24.7027 239.166 24.1178 240.208 23.1319 240.736L19.7705 242.539L25.6622 253.525L29.0236 251.722C30.0095 251.193 31.201 251.283 32.119 251.921C32.6303 252.278 33.1596 252.605 33.7039 252.902C34.6879 253.441 35.3002 254.468 35.2653 255.59L35.1445 259.404L47.6005 259.79L47.7156 255.964C47.7496 254.841 48.4374 253.865 49.4525 253.385C49.728 253.255 50.0015 253.117 50.2723 252.972C50.5431 252.827 50.8091 252.676 51.0695 252.518C52.0261 251.941 53.2139 251.907 54.1639 252.496L57.431 254.519L63.9991 243.93L60.75 241.912C59.7962 241.321 59.2801 240.241 59.3773 239.123C59.4311 238.508 59.4509 237.888 59.4386 237.267C59.415 236.15 59.9999 235.109 60.9849 234.581L64.3472 232.778L58.4556 221.793L55.0932 223.596C54.1083 224.124 52.9186 224.036 52.0007 223.398C51.4903 223.044 50.9629 222.718 50.4214 222.422C49.4364 221.885 48.8223 220.857 48.8572 219.735L48.9751 215.913L36.52 215.526L36.4012 219.35C36.3663 220.468 35.6804 221.441 34.669 221.919C34.3926 222.05 34.1171 222.188 33.8435 222.335C33.5728 222.48 33.3067 222.631 33.0464 222.788C32.085 223.369 30.8916 223.402 29.9368 222.81L26.6867 220.798ZM37.2323 228.663C42.2004 225.999 48.3817 227.865 51.0459 232.832C53.7101 237.8 51.8488 243.99 46.8807 246.654C41.9126 249.318 35.7181 247.448 33.0539 242.48C30.3897 237.513 32.2643 231.326 37.2323 228.663Z" fill="#FFC450"/>
<path d="M376.061 170.328L379.963 177.09L382.033 175.895C382.641 175.543 383.39 175.577 383.979 175.961C384.304 176.173 384.642 176.369 384.99 176.545C385.615 176.863 386.017 177.493 386.017 178.195V180.585H393.827V178.195C393.827 177.494 394.229 176.863 394.854 176.545C395.202 176.368 395.54 176.173 395.865 175.961C396.454 175.577 397.202 175.543 397.811 175.895L399.881 177.09L403.783 170.328L401.704 169.131C401.094 168.78 400.759 168.111 400.795 167.408C400.805 167.217 400.809 167.026 400.809 166.833C400.809 166.641 400.805 166.449 400.795 166.259C400.759 165.56 401.093 164.894 401.699 164.544L403.784 163.339L399.882 156.577L397.807 157.774C397.198 158.125 396.449 158.09 395.86 157.706C395.536 157.494 395.2 157.299 394.854 157.123C394.23 156.805 393.829 156.174 393.829 155.474V153.083H386.018V155.474C386.018 156.174 385.618 156.805 384.993 157.123C384.647 157.299 384.31 157.494 383.986 157.706C383.398 158.091 382.649 158.125 382.039 157.774L379.964 156.577L376.062 163.339L378.138 164.537C378.746 164.887 379.08 165.554 379.044 166.254C379.034 166.446 379.029 166.639 379.029 166.833C379.029 167.026 379.033 167.217 379.044 167.408C379.08 168.111 378.745 168.78 378.135 169.132L376.061 170.328ZM383.526 166.833C383.526 163.301 386.386 160.441 389.919 160.441C393.451 160.441 396.318 163.301 396.318 166.833C396.318 170.366 393.451 173.233 389.919 173.233C386.386 173.233 383.526 170.366 383.526 166.833Z" fill="#FFC450"/>
<path d="M348.107 261.333C369.268 261.333 386.414 244.187 386.414 223.026C386.414 201.874 369.268 184.719 348.107 184.719C326.956 184.719 309.8 201.874 309.8 223.026C309.8 244.187 326.956 261.333 348.107 261.333ZM348.107 205.142C357.989 205.142 366.001 213.145 366.001 223.027C366.001 232.909 357.989 240.921 348.107 240.921C338.225 240.921 330.213 232.909 330.213 223.027C330.213 213.144 338.225 205.142 348.107 205.142Z" fill="#FFC450"/>
<path d="M340.743 259.745H355.474L354.659 270.173H341.557L340.743 259.745Z" fill="#FFC450"/>
<path d="M368.781 254.783L379.198 244.365L385.995 252.315L376.731 261.58L368.781 254.783Z" fill="#FFC450"/>
<path d="M385.098 231.445V216.715L395.525 217.529V230.631L385.098 231.445Z" fill="#FFC450"/>
<path d="M380.134 203.407L369.718 192.991L377.667 186.193L386.932 195.458L380.134 203.407Z" fill="#FFC450"/>
<path d="M356.799 187.09H342.068L342.883 176.663H355.985L356.799 187.09Z" fill="#FFC450"/>
<path d="M328.76 192.054L318.343 202.47L311.546 194.521L320.81 185.256L328.76 192.054Z" fill="#FFC450"/>
<path d="M312.443 215.389V230.121L302.015 229.306V216.203L312.443 215.389Z" fill="#FFC450"/>
<path d="M317.406 243.428L327.823 253.845L319.873 260.643L310.609 251.377L317.406 243.428Z" fill="#FFC450"/>
<path d="M166.971 211.87C208.488 251.111 246.613 293.989 248.577 315.672C251.297 345.692 236.811 354.457 228.413 354.438C205.545 354.388 164.367 262.097 151.859 227.135C139.713 193.187 157.854 203.253 166.971 211.87Z" fill="white"/>
<path opacity="0.1" d="M220.985 351.771C197.534 336.352 163.105 258.566 151.866 227.139C148.136 216.714 147.257 210.429 148.108 207.001L220.985 351.771Z" fill="black"/>
<path d="M39.3889 380.75H197.224C199.442 378.401 170.923 237.824 161.481 211.142C155.389 193.928 127.405 189.891 114.503 203.032C64.2991 254.17 38.0634 379.126 39.3889 380.75Z" fill="white"/>
<path d="M216.756 349.44C204.079 339.833 210.378 309.909 217.52 260.696C218.773 252.06 276.946 230.682 278.149 239.935C279.664 251.59 270.45 306.52 265.169 319.923C254.755 346.343 231.559 360.66 216.756 349.44Z" fill="#EB9481"/>
<path d="M268.202 286.827C279.459 274.907 294.248 257.141 294.312 249.643C294.379 241.774 293.507 214.101 291.23 207.736C288.953 201.37 276.702 184.934 271.066 182.751C266.553 181.003 264.11 186.587 269.327 196.761C275.16 208.138 273.348 212.711 273.604 216.348C273.87 220.125 267.496 236.138 262.187 237.479C259.058 238.269 252.571 238.207 251.119 232.567C249.668 226.925 251.171 221.824 249.018 211.982C247.345 204.331 240.97 199.552 238.33 200.879C235.691 202.205 237.855 206.793 236.076 218.246C234.966 225.389 233.891 230.514 225.329 240.925C217.835 250.038 217.326 262.694 217.326 262.694L268.202 286.827Z" fill="#EB9481"/>
<path d="M294.901 232.011C294.607 227.698 297.6 214.644 296.607 208.944C295.613 203.243 289.008 182.267 282.64 180.534C274.637 178.356 276.953 195.404 278.632 202.715C280.311 210.025 275.579 223.182 275.579 223.182L286.59 227.912L294.901 232.011Z" fill="#EB9481"/>
<path d="M273.966 226.179C275.946 219.559 278.416 212.834 278.53 205.87C278.21 200.887 277.232 195.974 277.018 190.944C276.967 187.967 276.793 184.704 278.325 182.017C278.851 181.132 279.785 180.49 280.788 180.386C279.799 180.599 278.987 181.279 278.54 182.144C277.28 184.852 277.567 187.981 277.742 190.899C278.067 194.87 278.705 198.815 279.202 202.809C280.202 210.907 276.889 218.802 273.966 226.179Z" fill="#263238"/>
<path d="M294.512 235.763C295.427 231.566 301.883 219.991 302.516 214.27C303.149 208.547 302.675 186.636 297.102 183.137C290.097 178.738 287.582 195.662 287.155 203.116C286.728 210.572 278.59 221.742 278.59 221.742L287.749 229.444L294.512 235.763Z" fill="#EB9481"/>
<path d="M276.228 224.129C279.948 218.382 284.168 212.669 286.188 206.068C287.254 201.234 287.686 196.289 288.872 191.443C289.648 188.594 290.378 185.438 292.582 183.307C293.327 182.607 294.403 182.266 295.383 182.458C294.383 182.373 293.417 182.788 292.754 183.489C290.805 185.717 290.221 188.776 289.581 191.602C288.794 195.472 288.311 199.403 287.682 203.342C286.405 211.329 281.065 217.928 276.228 224.129Z" fill="#263238"/>
<path d="M277.692 234.253C273.848 237.559 268.726 238.996 263.839 239.974C262.172 240.274 260.469 240.392 258.815 240.494C253.838 240.757 248.928 241.775 244.49 244.074C242.982 244.778 241.574 245.672 240.143 246.54C245.338 242.235 252.021 239.829 258.748 239.562C265.298 239.116 272.102 237.859 277.692 234.253Z" fill="#263238"/>
<path d="M292.615 254.848C294.416 251.055 300.551 236.128 300.924 229.797C301.296 223.465 299.494 199.326 293.08 195.669C285.02 191.075 283.202 209.823 283.159 218.057C283.118 226.293 275.738 234.992 275.738 234.992L287.486 245.467L292.615 254.848Z" fill="#EB9481"/>
<path d="M284.264 205.154C284.401 207.871 284.245 210.657 284.109 213.368C283.98 215.937 284.042 218.62 283.527 221.141C283.01 223.671 281.905 225.985 280.598 228.19C279.954 229.275 279.249 230.306 278.511 231.329C277.706 232.443 276.786 233.487 276.003 234.614C275.92 234.733 275.721 234.617 275.803 234.493C277.181 232.428 278.32 230.101 279.41 227.873C280.544 225.553 281.414 223.046 281.935 220.51C282.981 215.435 282.914 210.185 283.911 205.102C283.951 204.895 284.253 204.962 284.264 205.154Z" fill="#263238"/>
<path d="M283.527 221.14C283.551 213.277 282.576 204.812 286.153 197.517C288.293 193.511 292.659 193.692 295.004 197.418C298.687 203.278 299.583 210.379 300.287 217.103C299.164 211.3 297.264 198.915 291.99 195.787C283.148 192.883 284.112 215.914 283.527 221.14Z" fill="#263238"/>
<path d="M277.817 279.588L210.444 288.005C210.444 288.005 200.252 344.131 220.261 351.867C240.27 359.603 256.808 342.591 265.168 319.923C273.529 297.253 277.817 279.588 277.817 279.588Z" fill="white"/>
<path d="M208.134 325.669C207.878 319.366 207.928 313.06 208.144 306.757C208.495 300.475 208.564 294.052 210.328 287.965L210.351 287.897L210.418 287.884L213.92 287.248L210.471 288.126L210.562 288.045C209.177 294.156 209.199 300.537 208.828 306.783C208.649 311.482 208.3 320.968 208.134 325.669Z" fill="#263238"/>
<path d="M214.769 303.612C224.188 301.908 249.875 298.083 266.915 297.958C267.017 297.958 267.074 298.377 266.974 298.394C252.856 300.807 224.389 303.422 214.852 304.236C214.672 304.252 214.591 303.645 214.769 303.612Z" fill="#263238"/>
<path d="M94.1962 316.526C95.434 311.004 116.215 242.466 122 220.854C127.192 201.455 123.086 193.977 108.304 206.903C81.0874 230.7 29.0161 301.191 21.0734 336.175C13.4222 369.876 40.9107 370.444 62.084 353.536C79.4194 339.693 94.1962 316.526 94.1962 316.526Z" fill="white"/>
<path d="M91.5519 325.384C97.8483 299.349 105.389 273.62 114.172 248.315C107.886 274.352 100.326 300.076 91.5519 325.384Z" fill="#263238"/>
<path d="M110.058 263.303C111.212 259.916 112.981 256.902 115.077 254.019C114.164 257.455 112.324 260.571 110.058 263.303Z" fill="#263238"/>
<path d="M31.2077 358.692C42.3382 369.255 66.27 366.816 127.104 366.331C135.522 366.264 151.03 306.729 142.037 306.339C130.71 305.847 86.6451 306.394 83.4271 306.84C56.2914 310.61 23.6584 351.527 31.2077 358.692Z" fill="#EB9481"/>
<path d="M132.74 308.946C132.74 308.946 155.229 300.972 168.342 300.439C185.9 299.725 201.352 306.34 207.661 309.502C220.829 316.103 248.103 341.168 242.255 350.282C236.961 358.534 210.375 331.505 210.375 331.505C210.375 331.505 242.029 354.59 233.827 363.353C225.626 372.115 196.55 338.983 196.55 338.983C196.55 338.983 228.541 363.432 218.653 371.13C211.182 376.948 183.157 348.424 183.157 348.424C183.157 348.424 210.509 369.628 203.082 375.943C194.876 382.92 167.356 358.213 167.356 358.213C145.778 371.085 130.238 368.388 119.412 365.153C116.79 364.371 132.74 308.946 132.74 308.946Z" fill="#EB9481"/>
<path d="M199.94 322.82C203.756 325.396 207.636 327.979 211.21 330.887C214.785 333.794 218.26 336.829 221.547 340.056C229.609 347.971 233.421 354.189 233.144 353.831C226.588 345.354 213.954 334.747 210.378 331.839C206.811 328.938 203.39 325.855 199.823 322.951C199.734 322.879 199.849 322.758 199.94 322.82Z" fill="#263238"/>
<path d="M189.206 335.533C193.937 339.035 198.761 342.338 203.339 346.05C207.894 349.743 211.892 353.646 216.181 357.643C216.511 357.951 216.236 358.028 215.893 357.732C211.448 353.909 207.044 350.718 202.555 346.947C198.081 343.19 193.72 339.23 189.114 335.639C189.041 335.583 189.134 335.481 189.206 335.533Z" fill="#263238"/>
<path d="M178.031 344.791C185.535 349.772 192.111 356.132 198.411 362.524C198.724 362.842 198.36 362.902 198.021 362.595C191.357 356.572 186.172 351.801 177.857 345.051C177.728 344.947 177.873 344.686 178.031 344.791Z" fill="#263238"/>
<path d="M130.797 299.841L92.2084 380.265C92.2084 380.265 31.5926 371.118 23.5414 359.172C17.7865 350.632 52.3903 311.737 82.311 306.592L130.797 299.841Z" fill="white"/>
<path d="M49.2034 325.175C52.7525 320.352 65.0906 309.764 82.3364 306.538C82.4883 306.51 82.5675 306.745 82.4166 306.788C69.804 310.434 53.1912 320.994 49.3798 325.346C49.2788 325.46 49.1147 325.296 49.2034 325.175Z" fill="#263238"/>
<path d="M82.1298 366.326C85.2365 358.285 88.7687 350.418 92.3225 342.56C95.8793 334.697 99.4209 326.824 103.174 319.05C105.294 314.658 107.389 310.25 109.662 305.932C109.721 305.819 109.925 305.89 109.877 306.014C106.779 314.044 103.275 321.935 99.7794 329.803C96.2745 337.69 92.6848 345.547 89.0234 353.364C86.9545 357.781 84.8063 362.161 82.5345 366.481C82.4223 366.696 82.0383 366.562 82.1298 366.326Z" fill="#263238"/>
<path d="M130.657 299.093C127.293 299.058 123.974 299.537 120.639 299.954C117.306 300.37 113.981 300.844 110.661 301.347C104.058 302.349 89.9509 303.719 78.3628 307.462C78.2345 307.503 79.0902 307.916 79.2157 307.867C84.6422 305.803 126.735 301.015 130.059 300.208C129.999 300.46 129.943 300.713 129.921 300.98C129.905 301.162 130.131 301.318 130.266 301.147C130.586 300.744 130.766 300.309 131.053 299.885C131.289 299.537 131.092 299.097 130.657 299.093Z" fill="#263238"/>
<path d="M99.0161 366.676C96.9707 371.493 94.8037 376.252 92.5998 380.997C87.695 380.236 82.8156 379.365 77.9485 378.415C64.0066 375.545 49.6118 372.481 36.4313 367.036C41.0295 368.373 45.6797 369.45 50.3307 370.524C59.6565 372.724 82.6401 377.519 92.3272 379.614L91.6168 379.969C94.0197 375.503 96.465 371.061 99.0161 366.676Z" fill="#263238"/>
<path d="M150.581 229.894C142.533 229.363 125.15 215.338 123.095 202.973C122.959 202.125 126.672 195.006 130.773 186.14C133.241 180.752 135.861 174.693 137.854 168.992C138.257 167.819 170.576 190.175 170.576 190.175C170.576 190.175 162.884 200.897 159.472 210.859C159.196 211.694 159.007 212.496 158.9 213.284C158.874 213.396 158.86 213.536 158.816 213.689C157.988 218.387 159.191 230.461 150.581 229.894Z" fill="#EB9481"/>
<path d="M158.911 213.285C158.875 213.401 158.856 213.547 158.811 213.686C157.641 213.447 156.408 213.087 155.086 212.598C134.201 204.779 137.853 176.495 139.115 169.443C145.152 172.574 170.579 190.172 170.579 190.172C170.579 190.172 162.88 200.906 159.464 210.866C159.204 211.7 159.004 212.501 158.911 213.285Z" fill="#263238"/>
<path d="M173.726 157.839C173.216 167.532 179.697 175.754 188.201 176.201C196.706 176.649 204.014 169.153 204.524 159.459C205.034 149.766 198.553 141.545 190.049 141.097C181.544 140.649 174.236 148.145 173.726 157.839Z" fill="#455A64"/>
<path d="M168.703 158.189C168.135 168.973 175.345 178.119 184.806 178.617C194.268 179.115 202.397 170.776 202.965 159.992C203.533 149.207 196.324 140.062 186.862 139.564C177.401 139.066 169.271 147.404 168.703 158.189Z" fill="#C7C7C7"/>
<path d="M188.426 121.441C188.426 121.441 199.899 128.403 199.919 140.562C199.938 152.721 194.708 164.559 193.504 164.972C192.3 165.385 188.426 121.441 188.426 121.441Z" fill="#263238"/>
<path d="M136.092 126.53C129.687 139.027 129.818 178.47 137.694 188.671C149.112 203.459 171.217 208.642 184.643 194.137C197.659 180.078 196.577 128.679 187.462 119.057C174.037 104.886 145.553 108.071 136.092 126.53Z" fill="#EB9481"/>
<path d="M169.939 157.597C169.918 157.496 169.73 157.723 169.734 157.832C169.814 160.489 169.459 163.545 167.053 164.423C166.978 164.45 166.986 164.584 167.076 164.572C170.01 164.163 170.441 160.102 169.939 157.597Z" fill="#263238"/>
<path d="M167.571 154.819C163.298 154.489 162.95 163.057 166.909 163.365C170.804 163.666 171.152 155.097 167.571 154.819Z" fill="#263238"/>
<path d="M184.597 158.12C184.62 158.019 184.799 158.254 184.791 158.363C184.6 161.014 184.826 164.082 187.191 165.061C187.265 165.091 187.253 165.224 187.164 165.208C184.25 164.677 183.99 160.601 184.597 158.12Z" fill="#263238"/>
<path d="M187.079 155.445C191.362 155.294 191.348 163.871 187.381 164.009C183.476 164.147 183.489 155.569 187.079 155.445Z" fill="#263238"/>
<path d="M164.348 150.763C165.527 150.517 166.574 150.093 167.714 149.729C169.001 149.319 170.068 149.125 170.947 148.02C171.417 147.428 171.276 146.325 170.744 145.815C169.505 144.624 167.803 144.736 166.233 145.168C164.53 145.637 163.337 146.433 162.314 147.869C161.323 149.26 162.793 151.089 164.348 150.763Z" fill="#263238"/>
<path d="M190.568 151.264C189.388 151.021 188.34 150.602 187.198 150.242C185.909 149.836 184.841 149.646 183.96 148.545C183.487 147.954 183.624 146.852 184.155 146.339C185.389 145.144 187.091 145.25 188.662 145.676C190.367 146.137 191.563 146.929 192.592 148.363C193.589 149.749 192.125 151.582 190.568 151.264Z" fill="#263238"/>
<path d="M165.673 182.476C166.283 183.124 166.883 184.005 167.843 184.125C168.763 184.24 169.862 183.867 170.723 183.573C170.808 183.544 170.89 183.637 170.832 183.714C170.102 184.705 168.626 185.285 167.405 185.019C166.211 184.759 165.659 183.698 165.413 182.587C165.378 182.43 165.584 182.382 165.673 182.476Z" fill="#263238"/>
<path d="M168.906 173.766C170.298 176.13 172.43 177.479 174.775 178.032C175.821 178.287 176.929 178.368 178.02 178.314C178.234 178.317 178.449 178.303 178.645 178.267C178.839 178.252 179.016 178.237 179.23 178.202C179.542 178.169 179.722 177.921 179.786 177.63L179.787 177.61C179.789 177.513 179.791 177.434 179.773 177.337C179.773 177.337 179.773 177.337 179.774 177.317L179.778 177.084C179.916 175.043 179.845 171.927 179.845 171.927C180.576 172.33 184.314 174.198 184.297 173.128C184.128 164.267 183.94 154.413 181.901 145.632C181.849 145.339 181.4 145.388 181.413 145.68C181.238 154.202 182.563 162.697 182.524 171.261C181.328 170.75 179.381 169.814 178.31 169.793C178.017 169.864 178.557 175.813 178.422 176.725C178.422 176.725 178.421 176.764 178.4 176.821C174.948 177.121 172.402 175.979 169.162 173.537C168.973 173.379 168.755 173.548 168.906 173.766Z" fill="#263238"/>
<path d="M176.613 177.093C176.613 177.093 174.84 179.331 172.488 180.083C171.621 180.363 170.695 180.456 169.735 180.166C167.765 179.579 167.774 177.755 168.189 176.207C168.526 174.932 169.156 173.846 169.156 173.846C169.156 173.846 171.97 176.656 176.613 177.093Z" fill="#263238"/>
<path d="M172.488 180.084C171.621 180.364 170.695 180.456 169.735 180.167C167.765 179.58 167.774 177.755 168.189 176.207C170.311 176.494 172.374 178.007 172.488 180.084Z" fill="#FF9ABB"/>
<path d="M132.489 164.069C137.13 165.409 142.218 151.431 143.632 146.065C144.88 141.336 146.161 126.38 146.369 125.358C146.578 124.336 166.726 138.24 178.315 134.645C189.903 131.051 197.512 120.472 197.592 115.594C197.672 110.715 183.012 98.5714 170.492 98.1441C157.972 97.7167 141.299 113.895 141.299 113.895C141.299 113.895 146.938 106.931 146.734 106.371C146.53 105.81 138.5 109.173 137.108 114.955C137.108 114.955 138.588 107.702 137.975 107.576C137.362 107.451 131.182 113.745 132.676 118.414C132.676 118.414 125.515 124.827 124.956 131.736C124.396 138.646 127.034 162.493 132.489 164.069Z" fill="#263238"/>
<path d="M186.548 132.076C183.035 133.763 179.518 135.612 175.613 136.194C171.393 136.822 166.987 135.831 163.026 134.388C158.974 132.911 155.278 130.735 151.908 128.053C148.957 125.704 146.326 122.854 143.183 120.769C142.397 120.247 141.514 121.382 142.003 122.09C146.842 129.096 155.292 134.874 163.387 137.295C171.902 139.841 179.835 137.82 186.593 132.168C186.634 132.135 186.606 132.049 186.548 132.076Z" fill="#263238"/>
<path d="M140.093 159.819C140.093 159.819 133.395 146.053 127.281 148.25C121.168 150.448 124.833 169.444 131.044 172.949C137.255 176.454 140.612 170.768 140.612 170.768L140.093 159.819Z" fill="#EB9481"/>
<path d="M128.467 153.67C128.362 153.644 128.318 153.789 128.405 153.842C132.736 156.451 134.492 161.13 135.492 165.851C134.387 163.919 132.661 162.684 130.107 163.957C129.973 164.024 130.059 164.232 130.193 164.224C132.153 164.12 133.469 164.665 134.509 166.387C135.245 167.605 135.649 169.064 136.102 170.408C136.253 170.857 137.036 170.754 136.953 170.252C136.946 170.215 136.939 170.176 136.932 170.139C137.985 164.256 134.709 155.268 128.467 153.67Z" fill="#263238"/>
<path d="M131.787 146.668C131.787 146.668 131.691 125.296 137.414 113.362C140.222 107.504 146.341 105.044 153.388 104.393C153.388 104.393 149.638 106.32 145.196 114.819C140.634 123.545 138.859 147.286 138.859 147.286L131.787 146.668Z" fill="#C7C7C7"/>
<path d="M151.556 157.526C151.585 168.325 143.926 177.099 134.452 177.123C124.978 177.148 117.274 168.413 117.247 157.614C117.22 146.815 124.877 138.041 134.351 138.017C143.825 137.992 151.528 146.726 151.556 157.526Z" fill="#C7C7C7"/>
<path d="M146.557 156.926C146.582 166.633 139.698 174.52 131.182 174.542C122.666 174.564 115.742 166.713 115.717 157.005C115.692 147.298 122.575 139.411 131.092 139.388C139.608 139.367 146.533 147.219 146.557 156.926Z" fill="#455A64"/>
<path d="M138.163 157.122C138.178 163.088 133.947 167.935 128.714 167.948C123.481 167.961 119.226 163.137 119.21 157.172C119.195 151.206 123.424 146.36 128.659 146.347C133.893 146.333 138.147 151.158 138.163 157.122Z" fill="#37474F"/>
<path d="M162.911 188.859L150.565 185.31L139.666 174.799L141.287 173.118L151.769 183.226L163.555 186.613L162.911 188.859Z" fill="#C7C7C7"/>
<path d="M161.422 187.153C162.13 183.603 171.842 183.638 170.769 189.018C169.693 194.411 160.711 190.716 161.422 187.153Z" fill="#37474F"/>
<path d="M159.267 212.006L153.984 228.691L127.421 192.644L117.452 202.814L147.803 246.099L154.572 232.334L162.727 241.237L163.026 220.434L159.267 212.006Z" fill="#EBEBEB"/>
<path d="M117.452 202.813C127.995 217.724 137.018 232.748 147.991 247.343L148.367 246.304L155.073 232.518L154.176 232.695L162.426 241.511L163.127 242.26C163.178 234.986 163.087 227.709 163.025 220.434C162.766 227.366 162.479 234.297 162.319 241.231L163.026 240.962L154.966 231.973L154.378 231.318L154.069 232.15L147.24 245.892L148.283 245.738C137.558 231.419 128.585 216.82 117.452 202.813Z" fill="#263238"/>
<path d="M89.821 165.171C93.5929 142.254 78.0725 120.618 55.1551 116.846C32.2377 113.074 10.6017 128.594 6.82973 151.512C3.05777 174.429 18.5782 196.065 41.4956 199.837C64.413 203.609 86.049 188.089 89.821 165.171Z" fill="white"/>
<g opacity="0.1">
<path d="M58.4348 191.753C55.2366 192.72 51.8449 193.238 48.3316 193.238C40.4776 193.238 33.2293 190.643 27.398 186.264C18.9233 179.898 13.441 169.763 13.441 158.348C13.441 145.217 20.6941 133.781 31.4132 127.826" stroke="black" stroke-width="3" stroke-miterlimit="10"/>
<path d="M82.1741 149.826C82.8591 152.553 83.2223 155.408 83.2223 158.349C83.2223 170.936 76.557 181.966 66.5624 188.103" stroke="black" stroke-width="3" stroke-miterlimit="10"/>
<path d="M36.2079 125.622C39.9844 124.223 44.0685 123.458 48.3318 123.458C60.9548 123.458 72.0127 130.161 78.1383 140.202" stroke="black" stroke-width="3" stroke-miterlimit="10"/>
</g>
<path d="M56.6763 184.748C55.9801 185.44 55.1206 185.817 54.1942 186.05C53.6055 186.198 53.0017 186.28 52.4036 186.392H50.3573C49.5186 186.261 48.6742 186.161 47.8421 185.995C44.7326 185.378 41.9278 184.034 39.3155 182.288C32.4983 177.737 26.8991 171.994 22.6197 164.996C21.2112 162.693 20.213 160.212 19.7366 157.54C19.613 156.846 19.5196 156.145 19.4111 155.446V153.4C19.58 152.614 19.7159 151.82 19.9281 151.045C20.1253 150.329 20.4942 149.689 21.047 149.126C21.1442 149.213 21.2385 149.29 21.3253 149.376C24.5801 152.628 27.8321 155.882 31.0935 159.128C31.3266 159.36 31.3681 159.548 31.2841 159.867C30.8265 161.603 31.1322 163.182 32.3379 164.552C35.1182 167.713 38.0824 170.688 41.2429 173.468C42.6269 174.684 44.2203 174.975 45.9723 174.512C46.2053 174.451 46.3751 174.411 46.5779 174.615C49.9044 177.956 53.2404 181.288 56.5735 184.623C56.6037 184.652 56.6273 184.688 56.6763 184.748Z" fill="#AC5088"/>
<path d="M63.0613 177.44V178.122C62.7453 178.53 62.4622 178.972 62.1056 179.341C61.0999 180.382 60.0631 181.396 59.0376 182.418C58.9282 182.528 58.815 182.631 58.7254 182.716C55.363 179.356 52.0214 176.015 48.6826 172.679C49.9959 171.383 51.3091 170.052 52.6648 168.763C53.2865 168.172 54.1648 168.246 54.8111 168.875C55.5649 169.609 56.3008 170.359 57.0442 171.102C58.7914 172.849 60.5462 174.589 62.2783 176.351C62.5877 176.666 62.8028 177.075 63.0613 177.44Z" fill="#AC5088"/>
<path d="M36.7484 153.451C35.504 154.651 34.2361 155.828 33.0039 156.991C29.7878 153.777 26.4472 150.438 23.0386 147.033C23.2603 146.834 23.5112 146.628 23.7414 146.4C24.6575 145.49 25.5566 144.56 26.4877 143.666C26.8481 143.321 27.2802 143.05 27.6802 142.744H28.3623C28.7265 143.004 29.134 143.218 29.4472 143.528C31.8888 145.945 34.3115 148.381 36.7408 150.81C37.6616 151.729 37.6777 152.554 36.7484 153.451Z" fill="#AC5088"/>
<path d="M48.2346 161.164C48.2346 161.66 47.8497 162.045 47.3525 162.045H41.6778C41.6778 162.045 41.6778 162.045 41.6618 162.045H41.6457C41.4051 162.045 41.1485 161.949 40.9891 161.757C40.6523 161.388 40.6844 160.843 41.0372 160.507L45.7817 156.211C46.2468 155.794 46.4553 155.249 46.4553 154.673C46.4553 154.159 46.2789 153.679 45.927 153.278C45.51 152.813 44.9486 152.605 44.3882 152.605C43.8911 152.605 43.3939 152.781 42.9939 153.134L42.4967 153.583C42.1278 153.92 41.5835 153.888 41.2466 153.519C40.9259 153.15 40.9419 152.605 41.3108 152.269L41.807 151.82C42.5288 151.146 43.4741 150.826 44.3882 150.826C45.4298 150.826 46.4883 151.259 47.2412 152.092C47.9148 152.814 48.2355 153.759 48.2355 154.673C48.2355 155.716 47.8025 156.773 46.9694 157.526L43.9401 160.268H47.3544C47.8497 160.267 48.2346 160.667 48.2346 161.164Z" fill="#AC5088"/>
<path d="M58.5453 159.065C58.5453 159.562 58.1443 159.947 57.6481 159.947H57.4877V161.165C57.4877 161.661 57.1028 162.046 56.6056 162.046C56.1093 162.046 55.7244 161.661 55.7244 161.165V159.947H50.7073H50.6913H50.6752C50.4828 159.947 50.2903 159.899 50.1299 159.754C49.729 159.449 49.6809 158.904 49.9856 158.519L55.9169 151.145C55.9329 151.145 55.9329 151.129 55.949 151.113C55.965 151.097 55.981 151.081 55.9971 151.049C56.0452 151.033 56.0612 151.017 56.0773 151.001C56.0933 150.985 56.1254 150.97 56.1414 150.953C56.1735 150.937 56.1895 150.921 56.2376 150.921C56.2537 150.889 56.2697 150.873 56.3018 150.873C56.3178 150.857 56.3499 150.857 56.398 150.841C56.4141 150.841 56.4461 150.841 56.4622 150.825C56.4943 150.825 56.5424 150.825 56.5744 150.825C56.5744 150.825 56.5905 150.825 56.6065 150.825C56.6226 150.825 56.6226 150.825 56.6395 150.825C56.6707 150.825 56.7197 150.825 56.7348 150.825C56.7669 150.841 56.7829 150.841 56.815 150.841C56.8311 150.857 56.8792 150.857 56.9113 150.873C56.9273 150.873 56.9594 150.889 56.9754 150.889C57.0075 150.921 57.0396 150.937 57.0556 150.953C57.0877 150.969 57.1037 150.985 57.1358 151.001C57.1358 151.001 57.1518 151.001 57.1518 151.017C57.1679 151.017 57.1999 151.033 57.1999 151.049C57.232 151.081 57.2481 151.097 57.2641 151.113C57.2801 151.129 57.2962 151.162 57.3122 151.178C57.3282 151.194 57.3452 151.21 57.3764 151.258C57.3764 151.274 57.3924 151.306 57.4094 151.322C57.4254 151.354 57.4254 151.37 57.4415 151.418C57.4415 151.434 57.4575 151.466 57.4575 151.482C57.4735 151.514 57.4735 151.53 57.4735 151.579C57.4735 151.612 57.4896 151.627 57.4896 151.659C57.4896 151.675 57.4896 151.691 57.4896 151.707V158.182H57.6499C58.1443 158.182 58.5453 158.583 58.5453 159.065ZM55.7235 154.224L52.5338 158.183H55.7235V154.224Z" fill="#AC5088"/>
<path d="M60.617 160.827L64.5435 151.483C64.736 151.034 65.2492 150.825 65.7134 151.017C66.1464 151.194 66.3549 151.723 66.1624 152.155L62.235 161.517C62.0906 161.854 61.7538 162.046 61.417 162.046C61.3208 162.046 61.1934 162.03 61.0963 161.982C60.6321 161.806 60.4245 161.276 60.617 160.827Z" fill="#AC5088"/>
<path d="M74.0844 152.043L70.0767 161.516C69.9484 161.853 69.6276 162.045 69.2597 162.045C69.1635 162.045 69.0352 162.029 68.9229 161.981C68.4738 161.773 68.2663 161.259 68.4427 160.827L71.9051 152.604H67.7691C67.2889 152.604 66.8879 152.187 66.8879 151.706C66.8879 151.21 67.2889 150.825 67.7691 150.825H73.2674C73.3155 150.825 73.3636 150.825 73.4278 150.841C73.54 150.857 73.6523 150.921 73.7645 150.97C73.7806 150.986 73.7966 151.001 73.8127 151.018C73.8447 151.034 73.8608 151.05 73.8768 151.082C73.8929 151.114 73.9249 151.13 73.941 151.146C73.957 151.178 73.973 151.194 73.9891 151.21C74.0051 151.226 74.0221 151.274 74.0221 151.29C74.0381 151.321 74.0542 151.338 74.0863 151.37C74.0863 151.387 74.1023 151.435 74.1023 151.451C74.1183 151.483 74.1183 151.499 74.1344 151.531C74.1504 151.643 74.1504 151.771 74.1344 151.884C74.1155 151.947 74.0995 151.995 74.0844 152.043Z" fill="#AC5088"/>
<path d="M92.0877 112.542C115.314 112.542 134.143 93.7129 134.143 70.4866C134.143 47.2603 115.314 28.4316 92.0877 28.4316C68.8614 28.4316 50.0327 47.2603 50.0327 70.4866C50.0327 93.7129 68.8614 112.542 92.0877 112.542Z" fill="white"/>
<g opacity="0.1">
<path d="M81.9855 37.0811C85.1837 36.1151 88.5753 35.5962 92.0886 35.5962C99.9426 35.5962 107.191 38.1915 113.022 42.5709C121.497 48.9362 126.979 59.0714 126.979 70.4868C126.979 83.6174 119.726 95.0535 109.007 101.008" stroke="black" stroke-width="3" stroke-miterlimit="10"/>
<path d="M58.2461 79.0085C57.5612 76.281 57.198 73.4262 57.198 70.4856C57.198 57.8984 63.8633 46.8679 73.8579 40.731" stroke="black" stroke-width="3" stroke-miterlimit="10"/>
<path d="M104.212 103.213C100.435 104.613 96.351 105.378 92.0876 105.378C79.4646 105.378 68.4068 98.6737 62.2811 88.6328" stroke="black" stroke-width="3" stroke-miterlimit="10"/>
</g>
<path d="M117.062 79.2425L114.718 75.1801L113.475 75.8981C113.109 76.1094 112.66 76.0887 112.306 75.8585C112.111 75.7311 111.908 75.6141 111.699 75.5075C111.323 75.3169 111.082 74.9377 111.082 74.516V73.0801H106.39V74.516C106.39 74.9367 106.148 75.316 105.773 75.5075C105.563 75.6141 105.361 75.7311 105.165 75.8585C104.812 76.0887 104.362 76.1094 103.996 75.8981L102.753 75.1801L100.409 79.2425L101.658 79.9614C102.024 80.1727 102.226 80.5737 102.204 80.9963C102.198 81.1105 102.195 81.2256 102.195 81.3416C102.195 81.4567 102.198 81.5728 102.204 81.6869C102.226 82.1067 102.026 82.5068 101.661 82.7171L100.41 83.4407L102.754 87.5031L104.001 86.7842C104.367 86.5729 104.817 86.5937 105.171 86.8248C105.365 86.9522 105.567 87.0692 105.776 87.1748C106.15 87.3654 106.392 87.7446 106.392 88.1654V89.6013H111.083V88.1654C111.083 87.7446 111.324 87.3654 111.699 87.1748C111.908 87.0682 112.11 86.9522 112.304 86.8248C112.658 86.5937 113.108 86.5729 113.474 86.7842L114.721 87.5031L117.065 83.4407L115.818 82.7209C115.452 82.5105 115.252 82.1096 115.273 81.6888C115.279 81.5737 115.282 81.4577 115.282 81.3407C115.282 81.2256 115.279 81.1095 115.273 80.9954C115.251 80.5737 115.452 80.1718 115.819 79.9605L117.062 79.2425ZM112.578 81.3416C112.578 83.4634 110.859 85.1814 108.737 85.1814C106.615 85.1814 104.893 83.4625 104.893 81.3416C104.893 79.2199 106.615 77.4981 108.737 77.4981C110.859 77.4981 112.578 79.2199 112.578 81.3416Z" fill="#AC5088"/>
<path d="M83.5232 52.8506C74.9928 52.8506 68.0803 59.763 68.0803 68.2935C68.0803 76.8201 74.9928 83.7364 83.5232 83.7364C92.0508 83.7364 98.9661 76.8201 98.9661 68.2935C98.9661 59.7621 92.0499 52.8506 83.5232 52.8506ZM83.5232 75.5031C79.5391 75.5031 76.3098 72.2766 76.3098 68.2925C76.3098 64.3085 79.5401 61.0791 83.5232 61.0791C87.5073 61.0791 90.7376 64.3094 90.7376 68.2925C90.7366 72.2775 87.5073 75.5031 83.5232 75.5031Z" fill="#AC5088"/>
<path d="M86.4923 53.491H80.5535L80.8818 49.2871H86.164L86.4923 53.491Z" fill="#AC5088"/>
<path d="M75.188 55.4916L70.9888 59.6908L68.2491 56.486L71.9842 52.751L75.188 55.4916Z" fill="#AC5088"/>
<path d="M68.6106 64.8994V70.8383L64.4067 70.51V65.2277L68.6106 64.8994Z" fill="#AC5088"/>
<path d="M70.6116 76.2031L74.8108 80.4023L71.606 83.1429L67.871 79.4079L70.6116 76.2031Z" fill="#AC5088"/>
<path d="M80.0193 82.7808H85.9581L85.6298 86.9846H80.3476L80.0193 82.7808Z" fill="#AC5088"/>
<path d="M91.3226 80.7802L95.5228 76.5811L98.2625 79.7859L94.5274 83.5209L91.3226 80.7802Z" fill="#AC5088"/>
<path d="M97.901 71.3729V65.4341L102.105 65.7624V71.0446L97.901 71.3729Z" fill="#AC5088"/>
<path d="M95.9 60.0697L91.7008 55.8705L94.9056 53.1299L98.6406 56.8649L95.9 60.0697Z" fill="#AC5088"/>
<path d="M229.782 60.5842C235.222 38.0036 221.326 15.2887 198.746 9.84911C176.165 4.40951 153.45 18.305 148.011 40.8857C142.571 63.4663 156.466 86.1812 179.047 91.6208C201.628 97.0604 224.343 83.1648 229.782 60.5842Z" fill="white"/>
<g opacity="0.1">
<path d="M155.492 60.8433C154.526 57.6451 154.007 54.2535 154.007 50.7402C154.007 42.8862 156.603 35.6379 160.982 29.8066C167.347 21.3318 177.483 15.8496 188.898 15.8496C202.028 15.8496 213.465 23.1026 219.42 33.8218" stroke="black" stroke-width="3" stroke-miterlimit="10"/>
<path d="M197.421 84.5825C194.693 85.2674 191.839 85.6306 188.898 85.6306C176.311 85.6306 165.28 78.9653 159.143 68.9707" stroke="black" stroke-width="3" stroke-miterlimit="10"/>
<path d="M221.624 38.6157C223.023 42.3922 223.789 46.4763 223.789 50.7396C223.789 63.3626 217.085 74.4205 207.044 80.5461" stroke="black" stroke-width="3" stroke-miterlimit="10"/>
</g>
<path d="M180.048 39.6066C180.048 44.4944 184.01 48.4568 188.898 48.4568C193.786 48.4568 197.748 44.4944 197.748 39.6056C197.748 34.7178 193.786 30.7554 188.898 30.7554C184.01 30.7563 180.048 34.7187 180.048 39.6066Z" fill="#AC5088"/>
<path d="M173.604 64.0204V67.6714C176.131 69.2413 178.94 70.4413 181.992 71.1819C189.882 73.1093 197.797 71.6291 204.193 67.6582V64.0194C204.193 55.5937 197.35 48.7256 188.899 48.7256C180.447 48.7265 173.604 55.5946 173.604 64.0204Z" fill="#AC5088"/>
<path d="M38.6636 380.564C149.57 379.987 273.983 379.982 384.889 380.564C273.982 381.146 149.57 381.143 38.6636 380.564Z" fill="#263238"/>
<path d="M212.523 371.323H203.357V377.308H212.523V371.323Z" fill="#455A64"/>
<path d="M224.411 370.926H215.244V376.911H224.411V370.926Z" fill="#455A64"/>
<path d="M236.299 370.531H227.132V376.516H236.299V370.531Z" fill="#455A64"/>
<path d="M248.186 370.136H239.019V376.121H248.186V370.136Z" fill="#455A64"/>
<path d="M260.074 369.741H250.907V375.726H260.074V369.741Z" fill="#455A64"/>
<path d="M271.962 369.345H262.794V375.33H271.962V369.345Z" fill="#455A64"/>
<path d="M283.85 368.949H274.683V374.934H283.85V368.949Z" fill="#455A64"/>
<path d="M295.738 368.553H286.571V374.538H295.738V368.553Z" fill="#455A64"/>
<path d="M307.625 368.158H298.458V374.143H307.625V368.158Z" fill="#455A64"/>
<path d="M309.869 380.749H201.113V373.467L309.869 370.435V380.749Z" fill="#37474F"/>
<path d="M373.261 351.437H222.503L246.478 239.202H397.236L373.261 351.437Z" fill="#455A64"/>
<path d="M378.837 351.437H228.079L252.055 239.202H402.813L378.837 351.437Z" fill="#37474F"/>
<path d="M328.474 288.816C327.659 293.964 322.824 298.137 317.676 298.137C312.528 298.137 309.016 293.964 309.832 288.816C310.647 283.668 315.481 279.495 320.629 279.495C325.777 279.495 329.29 283.668 328.474 288.816Z" fill="#263238"/>
<path d="M336.199 380.749H262.052V374.991L336.199 372.594V380.749Z" fill="#455A64"/>
<path d="M356.358 380.742H316.549L292.573 317.851H332.383L356.358 380.742Z" fill="#455A64"/>
<path d="M362.911 380.742H323.101L299.126 317.851H338.935L362.911 380.742Z" fill="#263238"/>
<path d="M230.591 380.749C230.591 380.749 166.312 380.749 160.313 380.749C154.314 380.749 162.993 363.672 184.882 357.12C206.77 350.568 237.495 374.344 230.591 380.749Z" fill="#37474F"/>
<path d="M203.013 380.749C202.836 378.782 203.109 376.802 203.606 374.891C204.099 372.973 204.901 371.132 205.914 369.407C206.935 367.687 208.261 366.133 209.799 364.853C211.297 363.522 213.149 362.632 215.009 362.06C213.537 363.384 212.087 364.548 210.897 365.991C209.695 367.396 208.561 368.847 207.647 370.453C205.724 373.613 204.318 377.068 203.013 380.749Z" fill="#263238"/>
<path d="M211.34 364.5C213.51 364.951 215.584 365.719 217.588 366.631C219.6 367.536 221.512 368.661 223.339 369.929C225.151 371.213 226.849 372.723 228.233 374.522C229.598 376.285 230.727 378.487 230.591 380.748C229.876 378.641 228.514 377.034 227.043 375.562C225.541 374.117 223.917 372.775 222.163 371.576C218.712 369.1 215.018 366.927 211.34 364.5Z" fill="#263238"/>
<path d="M316.574 126.314H215.981V164.557L199.488 178.523H215.981V184.375H316.574V126.314Z" fill="white"/>
<path d="M316.574 126.314C291.488 126.458 241.054 126.585 215.98 126.623L216.289 126.314L216.378 164.556V164.74L216.236 164.86L199.775 178.862L199.487 178.078L215.979 178.06L216.443 178.059L216.442 178.523L216.43 184.375C213.725 183.156 317.106 184.413 316.573 184.031C316.573 184.031 316.23 184.375 316.23 184.375C316.23 169.909 316.457 140.78 316.574 126.314ZM316.574 126.314C316.684 140.786 316.91 169.903 316.917 184.375L316.919 184.718C315.991 184.715 216.44 184.829 215.531 184.826L215.53 184.375L215.517 178.523L215.981 178.986L199.489 178.967L198.274 178.966L199.202 178.184L215.724 164.253L215.583 164.556L215.672 126.314L215.673 126.003L215.983 126.004C241.045 126.048 291.518 126.173 316.574 126.314Z" fill="#263238"/>
<path d="M299.571 157.697H225.986V158.951H299.571V157.697Z" fill="#263238"/>
<path d="M287.479 164.467H225.986V165.721H287.479V164.467Z" fill="#263238"/>
<path d="M291.005 144.158H225.986V145.412H291.005V144.158Z" fill="#263238"/>
<path d="M306.361 137.388H225.986V138.642H306.361V137.388Z" fill="#263238"/>
<path d="M292.324 171.236H225.986V172.49H292.324V171.236Z" fill="#263238"/>
</svg>
